<mxfile host="65bd71144e">
    <diagram name="Page-1" id="e7e014a7-5840-1c2e-5031-d8a46d1fe8dd">
        <mxGraphModel dx="1537" dy="958" grid="1" gridSize="10" guides="1" tooltips="1" connect="1" arrows="1" fold="1" page="1" pageScale="1" pageWidth="1169" pageHeight="826" background="none" math="0" shadow="0">
            <root>
                <mxCell id="0"/>
                <mxCell id="1" parent="0"/>
                <mxCell id="5" value="" style="ellipse;shape=startState;fillColor=#000000;strokeColor=#ff0000;" parent="1" vertex="1">
                    <mxGeometry x="530" y="120" width="30" height="30" as="geometry"/>
                </mxCell>
                <mxCell id="6" value="" style="edgeStyle=elbowEdgeStyle;elbow=horizontal;verticalAlign=bottom;endArrow=open;endSize=8;strokeColor=#FF0000;endFill=1;rounded=0" parent="1" source="5" target="7" edge="1">
                    <mxGeometry x="264.5" y="168" as="geometry">
                        <mxPoint x="279.5" y="238" as="targetPoint"/>
                    </mxGeometry>
                </mxCell>
                <mxCell id="7" value="Select Map" style="" parent="1" vertex="1">
                    <mxGeometry x="490" y="190" width="110" height="50" as="geometry"/>
                </mxCell>
                <mxCell id="12" value="" style="edgeStyle=elbowEdgeStyle;elbow=horizontal;strokeColor=#FF0000;endArrow=open;endFill=1;rounded=0;entryX=0.014;entryY=0.58;entryDx=0;entryDy=0;entryPerimeter=0;exitX=0.991;exitY=0.58;exitDx=0;exitDy=0;exitPerimeter=0;" parent="1" source="7" target="--aC9Y19Py0P3mBD0B1K-50" edge="1">
                    <mxGeometry width="100" height="100" relative="1" as="geometry">
                        <mxPoint x="540" y="250" as="sourcePoint"/>
                        <mxPoint x="540" y="270" as="targetPoint"/>
                        <Array as="points">
                            <mxPoint x="650" y="210"/>
                            <mxPoint x="194.5" y="378"/>
                        </Array>
                    </mxGeometry>
                </mxCell>
                <mxCell id="--aC9Y19Py0P3mBD0B1K-64" style="edgeStyle=orthogonalEdgeStyle;rounded=0;orthogonalLoop=1;jettySize=auto;html=1;endArrow=open;strokeColor=#FF0000;endFill=1;entryX=0.5;entryY=0;entryDx=0;entryDy=0;" parent="1" source="--aC9Y19Py0P3mBD0B1K-42" target="--aC9Y19Py0P3mBD0B1K-57" edge="1">
                    <mxGeometry relative="1" as="geometry">
                        <mxPoint x="580" y="380" as="targetPoint"/>
                    </mxGeometry>
                </mxCell>
                <mxCell id="--aC9Y19Py0P3mBD0B1K-42" value="Enrollment&#10;Process" style="" parent="1" vertex="1">
                    <mxGeometry x="490" y="310" width="110" height="50" as="geometry"/>
                </mxCell>
                <mxCell id="--aC9Y19Py0P3mBD0B1K-66" style="edgeStyle=orthogonalEdgeStyle;rounded=0;orthogonalLoop=1;jettySize=auto;html=1;endArrow=open;strokeColor=#FF0000;endFill=1;entryX=0.5;entryY=0;entryDx=0;entryDy=0;" parent="1" source="--aC9Y19Py0P3mBD0B1K-44" target="--aC9Y19Py0P3mBD0B1K-58" edge="1">
                    <mxGeometry relative="1" as="geometry">
                        <mxPoint x="570" y="580" as="targetPoint"/>
                    </mxGeometry>
                </mxCell>
                <mxCell id="--aC9Y19Py0P3mBD0B1K-44" value="Start Game" style="" parent="1" vertex="1">
                    <mxGeometry x="490" y="500" width="110" height="50" as="geometry"/>
                </mxCell>
                <mxCell id="--aC9Y19Py0P3mBD0B1K-46" value="" style="ellipse;shape=endState;fillColor=#000000;strokeColor=#ff0000" parent="1" vertex="1">
                    <mxGeometry x="530" y="690" width="30" height="30" as="geometry"/>
                </mxCell>
                <mxCell id="--aC9Y19Py0P3mBD0B1K-56" style="edgeStyle=orthogonalEdgeStyle;rounded=0;orthogonalLoop=1;jettySize=auto;html=1;entryX=1;entryY=0.5;entryDx=0;entryDy=0;endArrow=open;strokeColor=#FF0000;endFill=1;" parent="1" source="--aC9Y19Py0P3mBD0B1K-49" target="--aC9Y19Py0P3mBD0B1K-42" edge="1">
                    <mxGeometry relative="1" as="geometry"/>
                </mxCell>
                <mxCell id="--aC9Y19Py0P3mBD0B1K-49" value="Define Team Size" style="" parent="1" vertex="1">
                    <mxGeometry x="690" y="310" width="110" height="50" as="geometry"/>
                </mxCell>
                <mxCell id="--aC9Y19Py0P3mBD0B1K-55" style="edgeStyle=orthogonalEdgeStyle;rounded=0;orthogonalLoop=1;jettySize=auto;html=1;endArrow=open;strokeColor=#FF0000;endFill=1;entryX=0.5;entryY=0;entryDx=0;entryDy=0;" parent="1" source="--aC9Y19Py0P3mBD0B1K-50" edge="1" target="--aC9Y19Py0P3mBD0B1K-49">
                    <mxGeometry relative="1" as="geometry">
                        <mxPoint x="745" y="320" as="targetPoint"/>
                    </mxGeometry>
                </mxCell>
                <mxCell id="--aC9Y19Py0P3mBD0B1K-50" value="Define Number of Team" style="" parent="1" vertex="1">
                    <mxGeometry x="675" y="190" width="140" height="50" as="geometry"/>
                </mxCell>
                <mxCell id="--aC9Y19Py0P3mBD0B1K-65" style="edgeStyle=orthogonalEdgeStyle;rounded=0;orthogonalLoop=1;jettySize=auto;html=1;endArrow=open;strokeColor=#FF0000;endFill=1;entryX=0.5;entryY=0;entryDx=0;entryDy=0;" parent="1" source="--aC9Y19Py0P3mBD0B1K-57" target="--aC9Y19Py0P3mBD0B1K-44" edge="1">
                    <mxGeometry relative="1" as="geometry">
                        <mxPoint x="570" y="480" as="targetPoint"/>
                    </mxGeometry>
                </mxCell>
                <mxCell id="--aC9Y19Py0P3mBD0B1K-57" value="Wait Players" style="" parent="1" vertex="1">
                    <mxGeometry x="490" y="400" width="110" height="50" as="geometry"/>
                </mxCell>
                <mxCell id="--aC9Y19Py0P3mBD0B1K-67" style="edgeStyle=orthogonalEdgeStyle;rounded=0;orthogonalLoop=1;jettySize=auto;html=1;endArrow=open;strokeColor=#FF0000;endFill=1;" parent="1" source="--aC9Y19Py0P3mBD0B1K-58" target="--aC9Y19Py0P3mBD0B1K-46" edge="1">
                    <mxGeometry relative="1" as="geometry"/>
                </mxCell>
                <mxCell id="--aC9Y19Py0P3mBD0B1K-58" value="Wait End Game" style="" parent="1" vertex="1">
                    <mxGeometry x="490" y="590" width="110" height="50" as="geometry"/>
                </mxCell>
            </root>
        </mxGraphModel>
    </diagram>
</mxfile>